name C:\Users\u0150099\Documents\master_thesis\3dpredictsim\Results\debug\Fal_s1_mtjc3_sc_cspx10_oy_MTc2_MTPm_k1_d01_MTJm_nl_MG_exp5_table_d01_PF_Natali2010_ls146_ig21.mot
datacolumns 128
datarows 4
range 0.54431456 0.57697344
endheader
time	pelvis_tilt	pelvis_list	pelvis_rotation	pelvis_tx	pelvis_ty	pelvis_tz	hip_flexion_l	hip_adduction_l	hip_rotation_l	hip_flexion_r	hip_adduction_r	hip_rotation_r	knee_angle_l	knee_angle_r	ankle_angle_l	ankle_angle_r	subtalar_angle_l	subtalar_angle_r	mtj_angle_l	mtj_angle_r	mtp_angle_l	mtp_angle_r	lumbar_extension	lumbar_bending	lumbar_rotation	arm_flex_l	arm_add_l	arm_rot_l	arm_flex_r	arm_add_r	arm_rot_r	elbow_flex_l	elbow_flex_r	pro_sup_l	pro_sup_r	glut_med1_l/activation	glut_med2_l/activation	glut_med3_l/activation	glut_min1_l/activation	glut_min2_l/activation	glut_min3_l/activation	semimem_l/activation	semiten_l/activation	bifemlh_l/activation	bifemsh_l/activation	sar_l/activation	add_long_l/activation	add_brev_l/activation	add_mag1_l/activation	add_mag2_l/activation	add_mag3_l/activation	tfl_l/activation	pect_l/activation	grac_l/activation	glut_max1_l/activation	glut_max2_l/activation	glut_max3_l/activation	iliacus_l/activation	psoas_l/activation	quad_fem_l/activation	gem_l/activation	peri_l/activation	rect_fem_l/activation	vas_med_l/activation	vas_int_l/activation	vas_lat_l/activation	med_gas_l/activation	lat_gas_l/activation	soleus_l/activation	tib_post_l/activation	flex_dig_l/activation	flex_hal_l/activation	tib_ant_l/activation	per_brev_l/activation	per_long_l/activation	per_tert_l/activation	ext_dig_l/activation	ext_hal_l/activation	ercspn_l/activation	intobl_l/activation	extobl_l/activation	glut_med1_r/activation	glut_med2_r/activation	glut_med3_r/activation	glut_min1_r/activation	glut_min2_r/activation	glut_min3_r/activation	semimem_r/activation	semiten_r/activation	bifemlh_r/activation	bifemsh_r/activation	sar_r/activation	add_long_r/activation	add_brev_r/activation	add_mag1_r/activation	add_mag2_r/activation	add_mag3_r/activation	tfl_r/activation	pect_r/activation	grac_r/activation	glut_max1_r/activation	glut_max2_r/activation	glut_max3_r/activation	iliacus_r/activation	psoas_r/activation	quad_fem_r/activation	gem_r/activation	peri_r/activation	rect_fem_r/activation	vas_med_r/activation	vas_int_r/activation	vas_lat_r/activation	med_gas_r/activation	lat_gas_r/activation	soleus_r/activation	tib_post_r/activation	flex_dig_r/activation	flex_hal_r/activation	tib_ant_r/activation	per_brev_r/activation	per_long_r/activation	per_tert_r/activation	ext_dig_r/activation	ext_hal_r/activation	ercspn_r/activation	intobl_r/activation	extobl_r/activation	
          0.54431456	         -2.91805162	          0.81887042	         -3.23017261	          0.72393837	          0.91529507	          0.00314751	         28.27139846	          2.76652944	         -1.61733884	        -21.51371387	          2.34444803	          9.32674541	        -12.01828646	         -1.67040785	          6.85051455	         -7.80980123	         -3.54139745	         -4.79931921	          3.16988401	          1.15709550	         -6.24019047	         25.02209601	         -4.10608936	          0.14856491	          1.15559464	         -1.20885286	        -13.48032126	         12.30249729	          4.40032175	        -13.69427946	         19.33579099	         21.65979460	         31.22721010	         86.51662706	         86.51662706	          0.05000040	          0.05000140	          0.05000052	          0.05886459	          0.05000803	          0.05000171	          0.22416564	          0.08080741	          0.36382976	          0.05801358	          0.05000495	          0.13818669	          0.17116971	          0.13281635	          0.16085462	          0.15683334	          0.05000059	          0.05913906	          0.11533757	          0.05000100	          0.05000081	          0.14204473	          0.06232781	          0.07163210	          0.10461127	          0.05012729	          0.05000318	          0.05000082	          0.05000376	          0.05000336	          0.05000242	          0.08849887	          0.05000123	          0.05266019	          0.05262935	          0.05757417	          0.05001829	          0.36040963	          0.17855024	          0.14802571	          0.25223284	          0.55444347	          0.33798182	          0.06057987	          0.09242674	          0.11493670	          0.44385444	          0.09741107	          0.05293546	          0.63458724	          0.21990728	          0.09741156	          0.05000264	          0.05000048	          0.05000037	          0.09284975	          0.13597121	          0.05000052	          0.05000061	          0.05000097	          0.05000341	          0.05000218	          0.60854030	          0.05000359	          0.05000162	          0.05001344	          0.05000578	          0.05000384	          0.62973476	          0.87029337	          0.05000058	          0.05000342	          0.05001831	          0.31305712	          0.05963403	          0.06201918	          0.05580729	          0.42451067	          0.53351609	          0.30252553	          0.35778392	          0.55187342	          0.50403646	          0.05000006	          0.06481574	          0.10560600	          0.05000023	          0.05000014	          0.11508646	          0.05000008	          0.05000015	          0.05000013	
          0.55520085	         -2.92629317	          0.94273489	         -3.54620685	          0.74049199	          0.91381384	          0.00297575	         28.12349816	          3.22534600	         -1.51628859	        -21.56365786	          1.95442030	          9.21917695	        -11.93850867	         -3.28554486	          6.64506785	         -7.81516672	         -3.81121417	         -3.26272939	          3.23826855	          0.22992320	         -5.95432425	         27.16147925	         -4.01947232	         -0.05454023	          1.28618733	         -1.82940396	        -13.45973646	         11.71225759	          4.22877983	        -13.64490141	         19.38770930	         20.80890690	         32.49327473	         86.51662706	         86.51662706	          0.05001087	          0.05000067	          0.05907182	          0.05000025	          0.05000038	          0.05000247	          0.20861622	          0.06978963	          0.34783074	          0.06978897	          0.05000154	          0.11696562	          0.16478029	          0.11242054	          0.16225356	          0.18254066	          0.05907179	          0.05008883	          0.09762605	          0.05907202	          0.05907223	          0.16343935	          0.05275605	          0.06063149	          0.11899843	          0.05000096	          0.05000035	          0.05000014	          0.05000173	          0.05000172	          0.05000152	          0.09080156	          0.05907267	          0.05000017	          0.06750905	          0.06467411	          0.06257448	          0.36594705	          0.21593456	          0.16079252	          0.27421976	          0.56509819	          0.36735071	          0.05627202	          0.07823244	          0.09728548	          0.43141461	          0.08245153	          0.05000049	          0.64392797	          0.18613540	          0.08245186	          0.05000288	          0.05000044	          0.05000034	          0.07859050	          0.11509026	          0.05000013	          0.05000018	          0.05000034	          0.05000132	          0.05000131	          0.52247000	          0.05000065	          0.05000054	          0.05001416	          0.05000435	          0.05000199	          0.53302419	          0.85867208	          0.05000019	          0.05000095	          0.05000020	          0.32690066	          0.05047749	          0.05249633	          0.05000583	          0.37784671	          0.48480944	          0.30120357	          0.30283769	          0.53447689	          0.42663023	          0.05000002	          0.05486180	          0.08938768	          0.05000017	          0.05000011	          0.09741220	          0.05000002	          0.05000004	          0.05000022	
          0.56608715	         -2.93010737	          1.06951085	         -3.85866013	          0.75747357	          0.91242654	          0.00276359	         27.96580862	          3.68330446	         -1.38724652	        -21.52197887	          1.53818524	          9.07192211	        -12.53925204	         -5.03050354	          6.21332161	         -7.96200678	         -4.10182066	         -1.62533183	          3.26200066	         -0.94624670	         -5.61774346	         29.64047291	         -3.90484597	         -0.25874937	          1.41322912	         -2.53146589	        -13.45019816	         11.28477662	          3.95536192	        -13.59437778	         19.34628824	         20.04681174	         33.81255469	         86.51662706	         86.51662706	          0.05907187	          0.05907174	          0.05000014	          0.05907214	          0.05907202	          0.05516411	          0.17657825	          0.05907188	          0.29441337	          0.05907165	          0.05000397	          0.20088790	          0.17520537	          0.09515601	          0.13733910	          0.18725176	          0.05000054	          0.09744483	          0.08263357	          0.05000036	          0.05000038	          0.20691709	          0.08245244	          0.08245003	          0.46243150	          0.18983617	          0.06442391	          0.05165948	          0.05000067	          0.05000066	          0.05000051	          0.07685686	          0.05000108	          0.05000022	          0.05907197	          0.05907180	          0.05907172	          0.38865790	          0.26655014	          0.18157298	          0.30088977	          0.62208006	          0.38391086	          0.05000009	          0.06621799	          0.08234498	          0.36516141	          0.06978924	          0.05000014	          0.54503767	          0.15754993	          0.06978958	          0.05000268	          0.05000031	          0.05000024	          0.06652111	          0.09741563	          0.06378753	          0.05000085	          0.05000067	          0.05000187	          0.05000083	          0.44223338	          0.05907318	          0.05000154	          0.05000166	          0.05000103	          0.05000106	          0.45116562	          0.72680256	          0.05000017	          0.05000074	          0.05000275	          0.29353619	          0.05000076	          0.05000073	          0.05000090	          0.31981946	          0.41035955	          0.29743143	          0.25632971	          0.45239623	          0.36111110	          0.05578888	          0.05000004	          0.07566007	          0.05000013	          0.05000006	          0.08245224	          0.05000183	          0.06124428	          0.06441081	
          0.57697344	         -2.92959599	          1.21175677	         -4.16264068	          0.77483993	          0.91110646	          0.00252576	         27.79485319	          4.09381772	         -1.24625033	        -21.38984574	          1.09529402	          8.86776406	        -13.81194023	         -6.89072554	          5.57889220	         -8.29883382	         -4.43715334	          0.04365988	          3.28068572	         -2.31047823	         -5.19257034	         32.32972667	         -3.76524836	         -0.47451983	          1.53259910	         -3.30117945	        -13.45223574	         11.00431033	          3.58160130	        -13.55373906	         19.25690478	         19.35848295	         35.20860108	         86.51662706	         86.51662706	          0.05000003	          0.05000009	          0.11270854	          0.05000024	          0.05000018	          0.05000016	          0.14946045	          0.05000011	          0.24919916	          0.05000006	          0.06978953	          0.17003714	          0.34478033	          0.36825716	          0.23003959	          0.21462225	          0.05906375	          0.08249203	          0.06994355	          0.08021620	          0.15453661	          0.23735841	          0.06979007	          0.06978991	          0.59007257	          0.16068243	          0.05453038	          0.06978976	          0.12780806	          0.13025631	          0.10287342	          0.06982638	          0.06979015	          0.06978985	          0.05000022	          0.05000004	          0.05000006	          0.47936384	          0.26027720	          0.15369916	          0.53881131	          0.63854070	          0.56106504	          0.05000001	          0.05604864	          0.06969896	          0.30908222	          0.05907166	          0.05907098	          0.46133421	          0.13335441	          0.05907184	          0.05000960	          0.05000209	          0.05000387	          0.05630528	          0.08245526	          0.19135201	          0.31175491	          0.05907240	          0.05907059	          0.09056345	          0.37431807	          0.05000280	          0.05000631	          0.05906747	          0.05907057	          0.05907093	          0.38187837	          0.61518483	          0.05907172	          0.05907028	          0.05000018	          0.24845672	          0.15044953	          0.15615438	          0.12241954	          0.27070354	          0.34733913	          0.26184845	          0.21696415	          0.38292013	          0.30565390	          0.21276423	          0.13075649	          0.07302528	          0.05000031	          0.05000019	          0.06978973	          0.07382874	          0.05907202	          0.06978972	
